<svg version="1.2" baseProfile="tiny-ps" viewBox="0 0 1200 600" width="1200" height="600" xmlns="http://www.w3.org/2000/svg">
  <defs></defs>
  <title>syriac_aramean_ethnic_flag-svg</title>
  <style>
		tspan { white-space:pre }
		.shp0 { fill: #ff0000 } 
		.shp1 { fill: #ffff00 } 
	</style>
  <path id="Layer" fill-rule="evenodd" class="shp1" d="M 574.1 223.37 C 559.53 219.93 544.88 209.43 540.52 193.08 C 536.15 176.74 538.08 157.85 542.04 140.25 C 543.23 145.89 544.4 162.87 550.23 163.5 C 550.87 163.5 553.2 155.23 555.41 145.12 C 557.63 135.02 561.62 120 564.29 111.75 L 569.14 96.75 L 570.09 110.25 C 571.21 126.09 574.13 141 576.11 141 C 576.87 141 577.5 139.64 577.5 137.98 C 577.5 130.08 593.09 74.99 595.32 75.01 C 597.7 92.13 594.93 109 599.03 126.75 C 601.91 138.79 604.39 145.5 605.94 145.5 C 612.07 131.97 612.89 118.5 615.37 104.25 C 620.71 117.54 621.95 132.44 622.68 143.24 C 623.48 155.62 624.77 166.37 625.53 167.13 C 628.41 170.01 635.39 144.31 633.44 138.04 C 631.93 133.21 639.16 143.74 644.42 154.05 C 649.13 163.27 649.94 166.34 650.03 175.15 C 650.23 197.65 633.98 215.72 607.12 222.87 C 598.41 225.19 582.82 225.42 574.1 223.37 Z"></path>
</svg>