<svg xmlns="http://www.w3.org/2000/svg" version="1.2" baseProfile="tiny-ps" viewBox="0 0 90 90" width="90" height="90">
	<style>
		tspan { white-space:pre }
		.shp0 { fill: #ffffff } 
		.shp1 { fill: #ff0000 } 
		.shp2 { fill: #ffff00 } 
		.shp3 { fill: none;stroke: #ffff00;stroke-width: 0.3 } 
	</style>
	<path id="Lager 1" class="shp0" d="M-6 -17L483 -17L483 126L-6 126L-6 -17Z"/>
	<path id="Layer" class="shp1" d="M24.5 69.9C10.84 69.9 -0.2 58.86 -0.2 45.2C-0.2 31.54 10.84 20.5 24.5 20.5C38.16 20.5 49.2 31.54 49.2 45.2C49.2 58.86 38.16 69.9 24.5 69.9Z"/>
	<g id="Lager_2">
		<path id="Border" fill-rule="evenodd" class="shp2" d="M20 51.3L29.2 51.3L29.2 53.9L20 53.9L20 51.3ZM28.8 51.6L20.3 51.6L20.3 53.5L28.8 53.5L28.8 51.6Z"/>
		<path id="Layer" class="shp3" d="M26.8 51.5L26.8 53.7"/>
		<path id="Layer" class="shp3" d="M24.5 51.5L24.5 53.6"/>
		<path id="Layer" class="shp3" d="M22.3 51.5L22.3 53.6"/>
		<path id="Layer" class="shp2" d="M21 51.9L21.5 51.9C21.5 52 21.4 52.1 21.4 52.2L21.4 52.2L21.4 52.2L21.2 52.2L21.2 52.2L21.2 52.2C21.1 52.2 21 52 21 51.9ZM20.9 52.8C20.9 52.9 20.8 53 20.7 53L20.4 52.7C20.5 52.6 20.6 52.6 20.7 52.6L20.7 52.6L20.7 52.6L20.9 52.8C21 52.8 21 52.8 20.9 52.8L20.9 52.8ZM21.6 53.3C21.5 53.2 21.5 53.1 21.4 53L21.4 53L21.4 52.9L21.5 52.8L21.5 52.8C21.6 52.8 21.8 52.9 21.8 53C22 53 21.6 53.3 21.6 53.3L21.6 53.3ZM20.9 52.5C20.8 52.5 20.7 52.5 20.6 52.5L20.8 52C20.9 52 21 52.2 21 52.3L21 52.3C21 52.3 21 52.3 21 52.4L20.9 52.5L20.9 52.5L20.9 52.5L20.9 52.5ZM21.4 53.3L20.9 53.3C20.9 53.2 21 53.1 21.1 53L21.1 53L21.1 53L21.3 53C21.3 52.9 21.4 53.2 21.4 53.3L21.4 53.3ZM22 52.3C21.9 52.4 21.7 52.4 21.6 52.4L21.5 52.3L21.5 52.3L21.5 52.3C21.5 52.2 21.6 52.1 21.6 52C21.7 51.9 22 52.3 22 52.3L22 52.3ZM21.4 52.3C21.5 52.4 21.5 52.5 21.5 52.6C21.5 52.7 21.3 52.8 21.2 52.8C21.1 52.8 20.9 52.7 20.9 52.6C20.9 52.5 21 52.4 21 52.3L21.1 52.3L21.4 52.3L21.4 52.3L21.4 52.3ZM21.9 52.8C21.8 52.8 21.7 52.7 21.6 52.7L21.6 52.7L21.6 52.7L21.6 52.6L21.6 52.6C21.7 52.6 21.8 52.5 21.9 52.5C22 52.4 22 52.8 21.9 52.8L21.9 52.8Z"/>
		<path id="Layer" class="shp2" d="M27.4 51.9C27.4 51.9 27.9 51.7 27.9 51.8C27.9 51.9 27.9 52 27.8 52.1L27.8 52.1L27.8 52.1L27.6 52.1C27.6 52.1 27.6 52.1 27.5 52.1L27.5 52.1C27.6 52.2 27.5 52.1 27.4 51.9ZM27.6 52.9C27.6 53 27.5 53.1 27.5 53.2L27.1 52.9C27.2 52.8 27.3 52.8 27.4 52.7L27.4 52.7L27.4 52.7L27.6 52.9L27.6 52.9L27.6 52.9ZM28.4 53C28.3 53 28.2 52.8 28.1 52.8L28.1 52.8C28.1 52.8 28.1 52.8 28.1 52.7L28.2 52.6L28.2 52.6C28.3 52.6 28.4 52.6 28.5 52.6C28.7 52.6 28.5 53.1 28.4 53L28.4 53ZM27.4 52.6C27.3 52.6 27.2 52.6 27.1 52.6C27.1 52.6 27.2 52.1 27.3 52.1C27.4 52.1 27.5 52.2 27.6 52.3L27.6 52.3C27.6 52.3 27.6 52.3 27.6 52.4L27.4 52.6C27.5 52.6 27.4 52.6 27.4 52.6L27.4 52.6L27.4 52.6ZM28.3 53.2L27.8 53.3C27.8 53.2 27.8 53.1 27.9 53L27.9 53L27.9 53L28.1 53C28 52.9 28.2 53.1 28.3 53.2ZM28.6 52.3C28.5 52.4 28.2 52.4 28.2 52.4L28.1 52.3L28.1 52.3L28.1 52.3C28.1 52.2 28.2 52.1 28.3 52C28.3 51.9 28.6 52.3 28.6 52.3L28.6 52.3ZM27.8 52.8C27.7 52.7 27.6 52.6 27.6 52.5C27.6 52.4 27.7 52.3 27.8 52.3C27.9 52.3 28.1 52.3 28.1 52.4C28.1 52.5 28.1 52.6 28 52.7L28 52.7L27.8 52.8L27.8 52.8L27.8 52.8Z"/>
		<path id="Layer" class="shp2" d="M25.4 51.8L26 51.8C26 51.9 25.9 52 25.8 52.1L25.8 52.1C25.8 52.1 25.8 52.1 25.7 52.1L25.5 52.1C25.5 52.1 25.5 52.1 25.4 52.1L25.4 52.1C25.5 52.1 25.4 51.9 25.4 51.8ZM25.4 52.9C25.4 53 25.3 53.1 25.2 53.2L24.9 52.8C25 52.7 25.1 52.7 25.2 52.7L25.2 52.7L25.2 52.7L25.4 52.9C25.4 52.8 25.4 52.8 25.4 52.9L25.4 52.9ZM26.1 53.1C26 53 26 52.9 25.9 52.8L25.9 52.8L25.9 52.7L26 52.6L26 52.6C26.1 52.6 26.2 52.6 26.3 52.7C26.5 52.8 26.2 53.2 26.1 53.1ZM25.3 52.5C25.2 52.5 25.1 52.5 25 52.5C25 52.5 25.2 52 25.3 52C25.4 52.1 25.5 52.2 25.5 52.3L25.5 52.3C25.5 52.3 25.5 52.3 25.5 52.4L25.3 52.5L25.3 52.5L25.3 52.5L25.3 52.5ZM25.9 53.3C25.9 53.3 25.4 53.4 25.4 53.3C25.4 53.2 25.5 53.1 25.6 53L25.6 53L25.6 53L25.8 53C25.8 53 25.9 53.2 25.9 53.3ZM26.4 52.5C26.3 52.6 26 52.5 26 52.5L25.9 52.3L25.9 52.3L25.9 52.3C26 52.2 26 52.1 26.1 52C26.2 52 26.5 52.5 26.4 52.5L26.4 52.5ZM25.5 52.7C25.4 52.6 25.4 52.5 25.4 52.4C25.4 52.3 25.6 52.2 25.7 52.2C25.8 52.2 26 52.3 26 52.4C26 52.5 26 52.6 25.9 52.7L25.8 52.8L25.5 52.7L25.5 52.7L25.5 52.7Z"/>
		<path id="Layer" class="shp2" d="M23 51.9L23.5 51.7C23.5 51.8 23.5 51.9 23.5 52L23.5 52L23.5 52L23.3 52.1C23.3 52.1 23.3 52.1 23.2 52.1L23.2 52.1C23.2 52.2 23 52 23 51.9ZM23.1 52.9C23.1 53 23 53.1 22.9 53.2L22.6 52.8C22.7 52.7 22.8 52.7 22.9 52.7L22.9 52.7L22.9 52.7L23.1 52.9C23.2 52.9 23.2 52.9 23.1 52.9L23.1 52.9ZM23.9 53.3C23.8 53.2 23.8 53.1 23.7 53L23.7 53L23.7 52.9L23.8 52.8L23.8 52.8C23.9 52.8 24 52.8 24.1 52.9C24.2 52.9 23.9 53.3 23.9 53.3L23.9 53.3ZM23 52.6C22.9 52.6 22.8 52.6 22.7 52.6L22.9 52.1C23 52.1 23.1 52.3 23.1 52.4L23.1 52.4C23.1 52.4 23.1 52.4 23.1 52.5L23 52.6C23 52.5 23 52.6 23 52.6L23 52.6L23 52.6ZM23.7 53.3L23.2 53.3C23.2 53.2 23.3 53.1 23.4 53L23.4 53L23.4 53L23.6 53C23.5 52.9 23.7 53.2 23.7 53.3L23.7 53.3ZM24.3 52.7C24.2 52.7 23.9 52.7 23.9 52.7L23.8 52.5L23.8 52.5L23.8 52.5C23.9 52.4 24 52.3 24.1 52.2C24.1 52.2 24.3 52.7 24.3 52.7ZM23.6 52.4C23.7 52.5 23.7 52.6 23.7 52.7C23.7 52.8 23.5 52.8 23.4 52.8C23.2 52.8 23.2 52.8 23.2 52.7C23.2 52.6 23.3 52.5 23.3 52.4L23.4 52.3L23.6 52.4L23.6 52.4ZM24.1 52.1C24 52.2 23.9 52.2 23.8 52.2L23.8 52.2C23.8 52.2 23.8 52.2 23.7 52.2L23.6 52.1L23.6 52.1C23.6 52 23.7 51.9 23.8 51.8C23.8 51.8 24.1 52.1 24.1 52.1L24.1 52.1Z"/>
		<path id="Sun" class="shp0" d="M27.6 43.8C27.6 45.5 26.2 46.8 24.5 46.8C22.8 46.8 21.4 45.5 21.4 43.8C21.4 42.1 22.8 40.8 24.5 40.8C26.2 40.8 27.6 42.1 27.6 43.8Z"/>
		<path id="Eagle" fill-rule="evenodd" class="shp2" d="M21.7 51.3L21.8 48.6L22.3 49L22.3 51.4L21.7 51.3ZM23.2 49.3L23.8 49.4L23.8 51.3L23.2 51.3L23.2 49.3ZM24.3 48L24.7 48L24.7 49.1L24.3 49.1L24.3 48ZM23.7 49.1L23.9 47.9L24.3 47.9L24.2 49.1L23.7 49.1ZM21.2 48.6L21.4 48L21.7 48.4L21.7 48.8L21.2 48.6ZM23.1 49.1L23.4 48L23.8 48.1L23.5 49.3L23.1 49.1ZM20.7 48.4L21 47.7L21.4 48L21.1 48.6L20.7 48.4ZM21.9 48.4L22.3 47.5L22.7 47.7L22.3 48.7L21.9 48.4ZM20.1 48.3L20.5 47.4L20.9 47.7L20.6 48.4L20.1 48.3ZM9.9 48.1L11.8 46.2L12.7 46.3L11.4 48L9.9 48.1ZM12.8 46.4L13.8 46.4L12.7 48L11.6 48L12.8 46.4ZM12.8 48L13.9 46.4L14.8 46.4L13.7 48L12.8 48ZM19.3 46.8L19.8 47L19.3 48.1L18.7 48.1L19.3 46.8ZM14 48L15 46.4L15.8 46.4L14.8 47.9L14 48ZM18.6 46.7L19.2 46.8L18.6 48.1L17.9 48.1L18.6 46.7ZM21.5 47.9L21.9 47.2L22.3 47.5L21.9 48.3L21.5 47.9ZM21 47.5L21.4 46.8L21.7 47.1L21.4 47.8L21 47.5ZM23.9 47.8L24.1 47L24.4 47L24.2 47.8L23.9 47.8ZM24.4 47.1L24.7 47.1L24.8 47.9L24.4 47.9L24.4 47.1ZM22.9 47.6L23.2 46.8L23.5 46.9L23.2 47.7L22.9 47.6ZM20.5 47.2L21 46.5L21.3 46.7L20.9 47.4L20.5 47.2ZM22 47.1L22.5 46.3L22.8 46.5L22.4 47.3L22 47.1ZM20 46.9L20.5 46.2L20.9 46.5L20.4 47.2L20 46.9ZM21.1 46.4L21.7 45.6L21.9 45.9L21.4 46.7L21.1 46.4ZM18.7 46.5L19.3 45.7L19.9 45.9L19.2 46.6L18.7 46.5ZM17.7 46.4L17 46.4L17.7 45.5L18.4 45.6L17.7 46.4ZM20.7 46L21.5 45.1L21.7 45.5L21 46.3L20.7 46ZM14.1 46.2L15.2 45.1L16 45.2L15 46.2L14.1 46.2ZM3.9 47L3.2 46L7.4 44.3L8.1 44.9L3.9 47ZM11.8 46L13.2 44.9L13.9 45L12.7 46.2L11.8 46ZM20 45.7L21.2 44.6L21.3 45L20.5 46L20 45.7ZM10.5 45.8L12.2 44.8L13 44.9L11.6 46L10.5 45.8ZM19.4 45.5L20.5 44.4L21.1 44.6L19.9 45.6L19.4 45.5ZM9.5 45.4L11.3 44.5L12 44.7L10.3 45.7L9.5 45.4ZM18.5 45.3L19.58 44.12C19.75 44.15 19.89 44.18 20 44.21L20.3 44.3L19.2 45.4L18.5 45.3ZM19.58 44.12C19.58 44.12 19.58 44.12 19.58 44.12C19.56 44.11 19.53 44.11 19.49 44.1C19.34 44.02 19.44 44.07 19.02 43.98C19.01 43.97 19.18 44.02 19.32 44.05C19.09 44 18.79 43.92 18.7 43.9C18.5 43.9 18.1 43.8 17.5 43.7C17.1 43.6 16.7 43.6 16.2 43.5C16 43.5 15.5 43.4 15.4 43.4C15.15 43.4 15.32 43.4 15.2 43.4L13.4 44.8L12.6 44.6L14.5 43.4L15.1 43.4L14.8 43.3C14.8 43.3 14.1 43.2 13.8 43.2C13.6 43.2 13.4 43.1 13.1 43.1C12.7 43.1 12.6 43.1 11.9 42.9C11.7 42.8 11.4 42.8 11.1 42.5C11 42.4 10.8 42.2 10.8 42C10.8 42 10.8 42 11.3 41.9C11.6 41.8 11.9 41.8 12.2 41.8C12.4 41.8 13.2 41.8 13.2 41.8C13.7 41.8 14.3 41.8 14.6 41.8C15.2 41.8 15.2 41.8 15.9 41.8C16.4 41.9 16.4 41.8 17.5 41.9C17.6 41.9 18.4 42 18.9 42.1C19.2 42.2 19.6 42.2 19.9 42.3C19.9 42.3 20.1 42.3 20.7 42.5C20.7 42.5 20.8 42.6 21.1 42.7C21.2 42.8 21.3 42.8 21.3 43C21.3 43.2 21.2 43.4 21.2 43.6C21.2 43.9 21.2 43.7 21.2 43.7C21.2 43.9 21.2 44.2 21.2 44.4C21.2 44.5 21.2 44.5 21.2 44.6C21 44.5 20.8 44.5 20.3 44.3C20.3 44.3 20.19 44.26 20 44.21L19.6 44.1L19.58 44.12ZM3 44.8L6.8 43.6L7.3 44.2L3.2 45.8L3 44.8ZM17.5 45.2L18.8 44L19.4 44.1L18.3 45.3L17.5 45.2ZM17.9 43.8L18.6 43.9L17.3 45.1L16.5 45.1L17.9 43.8ZM15.6 45L17 43.7L17.7 43.8L16.3 45L15.6 45ZM14.5 44.9L16.2 43.6L16.8 43.7L15.4 45L14.5 44.9ZM7.6 44.3L9.5 43.8L10.1 44.1L8.3 44.8L7.6 44.3ZM13.6 44.8L15.3 43.5L16 43.6L14.4 44.9L13.6 44.8ZM19.5 44.1C19.5 44.1 19.5 44.1 19.5 44.1C19.5 44.1 19.5 44.1 19.5 44.1ZM19.32 44.05C19.39 44.07 19.44 44.08 19.49 44.1C19.49 44.1 19.5 44.1 19.5 44.1C19.49 44.1 19.41 44.08 19.32 44.05ZM2.8 43.6L6.4 43L6.8 43.6L3 44.7L2.8 43.6ZM7 43.7L8.9 43.3L9.4 43.7L7.5 44.2L7 43.7ZM10.7 44.2L12.5 43.4L13.3 43.5L11.4 44.4L11.08 44.31L9.4 45.3L8.4 44.9L10.2 44.1L10.88 44.25L10.7 44.2ZM9.9 43.8L11.8 43.1L12.3 43.2L10.5 44L9.9 43.8ZM6.5 43L8.5 42.8L8.8 43.2L6.9 43.6L6.5 43ZM3.2 42.3L6.1 42.2L6.2 42.8L2.7 43.4C2.7 43.4 2.7 42.8 2.7 42.7C2.7 42.6 3.1 42.3 3.2 42.3ZM10.8 42.6L11 42.9L9 43.3L8.7 42.8L10.8 42.6ZM6.3 42.3L8.2 42.2L8.4 42.6L6.4 42.8L6.3 42.3ZM8.6 42.6L8.4 42.2L10.7 42.2L10.8 42.5L8.6 42.6ZM24 49.4L24.5 49.4L24.5 51.3L24 51.3L24 49.4ZM22.5 49.1L23.1 49.3L23.1 51.3L22.6 51.3L22.5 49.1ZM11.6 44.4L13.5 43.4L14.1 43.4L12.3 44.5L11.6 44.4ZM17.9 46.6L18.5 46.7L17.8 48.1L17 48.1L17.9 46.6ZM17.9 46.4L18.5 45.5L19 45.6L18.4 46.5L17.9 46.4ZM16.1 48L17 46.6L17.7 46.6L16.9 48L16.1 48ZM15.1 48L16.1 46.5L16.8 46.5L15.9 48L15.1 48ZM12.9 46.2L14.1 45L14.9 45.1L13.8 46.2L12.9 46.2ZM16.1 46.3L16.9 45.3L17.5 45.4L16.8 46.3L16.1 46.3ZM15.1 46.3L16.1 45.3L16.7 45.4L15.8 46.4L15.1 46.3ZM23.7 47L24 47.1L23.8 47.8L23.4 47.8L23.7 47ZM8 48.3L5.4 48.3L9.4 45.6L10.3 45.9L8 48.3ZM19.4 48.1L19.9 47L20.4 47.2L20 48.2L19.4 48.1ZM19.4 46.7L20 45.9L20.4 46.1L19.8 46.8L19.4 46.7ZM22.5 47.5L22.9 46.7L23.2 46.8L22.8 47.6L22.5 47.5ZM22.5 48.8L22.9 47.7L23.3 47.8L23 48.9L22.5 48.8ZM8.2 48.3L10.4 46L11.6 46.2L9.7 48.1L8.2 48.3ZM9.2 45.5L5.2 48.2L3.9 47.1L8.1 45L9.2 45.5ZM21.6 46.8L22.1 46L22.4 46.3L22 47.1L21.6 46.8ZM9.2 43.3L11.2 42.9L11.6 43.1L9.8 43.7L9.2 43.3Z"/>
		<path id="Eagle-2" fill-rule="evenodd" class="shp2" d="M26.8 51.3L26.8 48.9L27.3 48.5L27.4 51.2L26.8 51.3ZM25.9 51.3L25.3 51.3L25.3 49.4L25.9 49.3L25.9 51.3ZM24.8 49.2L24.4 49.2L24.4 48.1L24.8 48.1L24.8 49.2ZM25 49.2L24.9 48L25.3 48L25.5 49.2L25 49.2ZM27.4 48.9L27.4 48.5L27.7 48.1L27.9 48.6L27.4 48.9ZM25.6 49.1L25.3 47.9L25.7 47.8L26 48.9L25.6 49.1ZM28 48.6L27.7 48L28.1 47.7L28.4 48.4L28 48.6ZM26.8 48.7L26.4 47.7L26.8 47.5L27.2 48.4L26.8 48.7ZM28.5 48.4L28.2 47.6L28.6 47.3L29 48.2L28.5 48.4ZM37.7 48L36.4 46.3L37.3 46.2L39.2 48.1L37.7 48ZM37.6 48L36.5 48L35.4 46.4L36.4 46.4L37.6 48ZM35.3 48L34.2 46.4L35.2 46.4L36.3 48L35.3 48ZM29.3 47L29.8 46.8L30.4 48.1L29.8 48.1L29.3 47ZM34.1 48L33.1 46.5L33.9 46.5L34.9 48.1L34.1 48ZM31.2 48.1L30.5 48.1L29.9 46.8L30.5 46.7L31.2 48.1ZM27.3 48.3L26.9 47.5L27.3 47.2L27.7 47.9L27.3 48.3ZM27.7 47.8L27.3 47.1L27.6 46.8L28 47.5L27.7 47.8ZM24.9 47.8L24.8 47L25.1 47L25.2 47.8L24.9 47.8ZM24.7 47.9L24.3 47.9L24.4 47.1L24.7 47.1L24.7 47.9ZM25.8 46.8L26.1 47.6L25.8 47.7L25.3 47.8L25.2 47L25.8 46.8ZM28.2 47.4L27.8 46.7L28.1 46.5L28.6 47.2L28.2 47.4ZM26.7 47.4L26.3 46.6L26.6 46.4L27.1 47.2L26.7 47.4ZM28.7 47.1L28.2 46.4L28.6 46.1L29.1 46.8L28.7 47.1ZM27.6 46.7L27.1 45.9L27.3 45.6L27.9 46.4L27.6 46.7ZM29.8 46.6L29.3 45.8L29.9 45.6L30.5 46.4L29.8 46.6ZM30.7 45.5L31.4 45.4L32.1 46.3L31.4 46.3L30.7 45.5ZM28.1 46.3L27.4 45.5L27.6 45.1L28.4 46L28.1 46.3ZM34.2 46.2L33.2 45.2L34 45.1L35.1 46.2L34.2 46.2ZM41 44.9L41.7 44.3L45.9 46L45.2 47L41 44.9ZM36.4 46.2L35.2 45L35.9 44.9L37.3 46L36.4 46.2ZM28.5 46L27.7 45L27.8 44.6L29 45.7L28.5 46ZM37.4 46L36 44.9L36.8 44.8L38.5 45.8L37.4 46ZM29.2 45.6L28 44.6L28.6 44.4L29.7 45.5L29.2 45.6ZM38.8 45.7L37.1 44.7L37.8 44.5L39.6 45.4L38.8 45.7ZM29.9 45.4L28.8 44.3L29.5 44.1L30.6 45.3L29.9 45.4ZM45.9 45.8L41.8 44.2L42.3 43.6L46.1 44.8L45.9 45.8ZM30.8 45.3L29.7 44.1L30.3 44L31.6 45.2L30.8 45.3ZM30.5 44L31.2 43.9L32.6 45.2L31.8 45.2L30.5 44ZM32.7 45.1L31.4 43.8L32.1 43.7L33.5 45L32.7 45.1ZM33.7 45L32.3 43.7L32.9 43.6L34.6 44.9L33.7 45ZM40.8 44.8L39 44.1L39.6 43.8L41.5 44.3L40.8 44.8ZM34.8 44.9L33.2 43.6L33.9 43.5L35.6 44.8L34.8 44.9ZM36.7 44.6L34.9 43.5L35.5 43.5L37.4 44.5L36.7 44.6ZM46.2 44.7L42.4 43.6L42.8 43L46.4 43.6L46.2 44.7ZM41.6 44.2L39.7 43.7L40.2 43.3L42.1 43.7L41.6 44.2ZM37.7 44.3L35.8 43.4L36.6 43.3L38.4 44.1L37.7 44.3ZM38.5 44.1L36.7 43.3L37.2 43.2L39.2 43.8L38.5 44.1ZM42.2 43.6L40.3 43.2L40.6 42.8L42.6 43L42.2 43.6ZM45.9 42.3C46.1 42.3 46.4 42.6 46.4 42.7C46.4 42.8 46.4 43.4 46.4 43.4L42.8 42.8L42.9 42.2L45.9 42.3ZM40.4 42.8L40 43.2L38 42.8L38.2 42.5L40.4 42.8ZM42.7 42.8L40.7 42.6L40.9 42.2L42.8 42.3L42.7 42.8ZM38.3 42.5L38.4 42.2L40.7 42.2L40.5 42.6L38.3 42.5ZM25.2 51.3L24.7 51.3L24.7 49.4L25.2 49.4L25.2 51.3ZM26.6 51.3L26.1 51.3L26.1 49.3L26.7 49.1L26.6 51.3ZM33.9 43.3C33.6 43.3 33.9 43.3 33.6 43.3C33.5 43.3 33 43.4 32.8 43.4C32.2 43.5 31.9 43.5 31.5 43.6C30.9 43.7 30.5 43.8 30.3 43.8C29.5 44 29.7 44 29.5 44C29 44.1 28.7 44.2 28.7 44.2C28.1 44.4 28 44.5 27.8 44.5C27.8 44.4 27.8 44.1 27.8 44C27.8 43.8 27.8 43.8 27.8 43.6C27.8 43.6 27.8 43.8 27.8 43.5C27.8 43.3 27.7 43 27.7 42.9C27.8 42.9 27.9 42.8 28 42.8C28.2 42.7 28.4 42.6 28.4 42.6C29 42.4 29.2 42.4 29.2 42.4C29.5 42.3 29.9 42.3 30.2 42.2C30.7 42.1 31.5 42 31.6 42C32.8 41.9 32.8 41.9 33.2 41.9C34 41.9 34 41.9 34.5 41.9C34.8 41.9 35.4 41.9 35.9 41.9C35.9 41.9 36.7 41.9 36.9 41.9C37.2 41.9 37.5 42 37.8 42C38.3 42.1 38.3 42.1 38.3 42.1C38.2 42.2 38.1 42.5 38 42.6C37.7 42.9 37.4 43 37.2 43C36.5 43.2 36.5 43.2 36 43.2C35.7 43.3 35.4 43.3 35.3 43.3C35 43.4 34.3 43.4 34.3 43.4L33.9 43.3ZM32.1 48L31.3 48L30.6 46.6L31.2 46.5L32.1 48ZM30.6 46.4L30 45.5L30.5 45.4L31.1 46.3L30.6 46.4ZM32.2 48L31.4 46.6L32.1 46.6L33 48L32.2 48ZM33.2 48L32.3 46.5L33 46.5L34 48L33.2 48ZM35.2 46.2L34.2 45.1L35 45L36.2 46.2L35.2 46.2ZM32.3 46.3L31.6 45.4L32.2 45.3L33 46.3L32.3 46.3ZM33.2 46.3L32.3 45.3L32.9 45.2L33.9 46.2L33.2 46.3ZM38.9 45.9L39.8 45.6L43.8 48.3L41.2 48.3L38.9 45.9ZM29.1 48.2L28.7 47.2L29.2 47L29.7 48.1L29.1 48.2ZM29.2 46.8L28.6 46.1L29 45.9L29.6 46.7L29.2 46.8ZM39.7 45.4L38 44.4L38.9 44.2L40.7 45L39.7 45.4ZM35.7 44.8L34 43.5L34.7 43.5L36.6 44.7L35.7 44.8ZM26.3 47.6L25.9 46.8L26.2 46.7L26.6 47.5L26.3 47.6ZM26.2 49L25.9 47.9L26.2 47.8L26.6 48.9L26.2 49ZM39.4 48.1L37.5 46.2L38.7 46L40.9 48.3L39.4 48.1ZM39.9 45.5L40.9 45L45.1 47.1L43.8 48.2L39.9 45.5ZM27.2 47.1L26.8 46.3L27.1 46L27.6 46.8L27.2 47.1ZM39.4 43.7L37.6 43.1L38 42.9L40 43.3L39.4 43.7Z"/>
	</g>
</svg>