<svg version="1.2" baseProfile="tiny-ps" xmlns="http://www.w3.org/2000/svg" viewBox="0 0 1200 450" width="1200" height="450">
	<title>syriac_aramean_ethnic_flag-svg</title>
	<style>
		tspan { white-space:pre }
		.shp0 { fill: #ff0000 } 
		.shp1 { fill: #ffff00 } 
	</style>
	<path id="Layer" class="shp0" d="M0 -200L1200 -200L1200 550L0 550L0 -200Z" />
	<path id="Layer" fill-rule="evenodd" class="shp1" d="M639.52 386.89L638.22 327.11L647.14 325.39L649.02 385.89L639.52 386.89ZM629.48 386.89L616.27 386.89L616.27 329.89L626.76 328.63L629.48 386.89ZM618.45 317.51L615.13 283.33L623.15 281.07L630.09 313.5L618.45 317.51ZM666.76 313.1L663.6 305.67L671.71 299.98L675.74 308.49L666.76 313.1ZM638.52 310.33L630.51 278.69L640.51 274.88L649.74 304.46L638.52 310.33ZM685.02 304.08L680.6 294.11L692.59 286.39L699.52 298.28L685.02 304.08ZM659.92 298.11L648.91 270.64L656.75 264.19L668.02 291.56L659.92 298.11ZM707.22 295.3L698.32 282.27L709.82 275.81L721.88 291.62L707.22 295.3ZM953.56 293.89L866.15 240.52L884.77 235L989.7 292.51L953.56 293.89ZM1004.78 291.71L892.44 231.89L912.86 224.97L1034.6 283.49L1004.78 291.71ZM938.77 292.73L901.4 290.59L838.33 245.8L855.21 242.59L938.77 292.73ZM849.44 288L804.16 251.6L825.46 247.81L883.5 289.53L849.44 288ZM736.21 289.26L720.27 269.86L733.27 263.85L755.3 287.14L736.21 289.26ZM809.77 287.86L774.81 255.74L790.47 253.29L834.4 287.27L809.77 287.86ZM791.77 287.75L770.29 287.89L745.72 261.5L760.91 258.12L791.77 287.75ZM676.27 287.92L662.58 258.73L670.91 252.61L688.82 279.55L676.27 287.92ZM1042.56 279.82L920.18 222.37L937.96 213.87L1061.65 267.04L1042.56 279.82ZM693.35 274.7L675.64 248.35L685.1 241.87L704.02 268.57L693.35 274.7ZM613.9 271.02L610.52 235.02L614.78 234.35L621.01 269.52L613.9 271.02ZM629.04 267.37L620.45 233.14L627.24 230.12L637.54 264.88L629.04 267.37ZM715.26 262.27L693.52 237.32L702.94 230.89L726.54 256.11L715.26 262.27ZM646.27 259.35L633.34 228.64L638.1 224.37L651.94 256.11L646.27 259.35ZM1068.79 257.9L947.65 208.76L962.75 198.31L1079.58 238.51L1068.79 257.9ZM737.74 251.78L711.02 226.58L721.89 221.4L751 248.12L737.74 251.78ZM657.78 249.96L643.74 220.99L648.74 217.42L665.18 241.47L657.78 249.96ZM762.75 245.74L729.62 218.82L740.8 215.47L775.37 242.54L762.75 245.74ZM752.58 212.37L767.61 209.48L806.94 237.29L789.6 240.46L752.58 212.37ZM669.56 236.89L653.13 213.72L659.36 207.09L677.42 231.44L669.56 236.89ZM821.67 235.22L779 207.3L792.73 206.05L837.75 232.03L821.67 235.22ZM967.76 194.53L981.16 182.89L1090.47 213.35L1084.58 231.21L967.76 194.53ZM850.34 229.21L808.59 204.36L823.66 202.09L867.5 225.64L850.34 229.21ZM683.63 226.32L663.7 202.74L671.19 195.71L693.11 219.63L683.63 226.32ZM876.52 222.9L832.64 200.25L853.27 196.83L895.97 217.47L876.52 222.9ZM700.08 215.8L677.78 190.26L683.9 185.94L710.02 209.75L700.08 215.8ZM906.15 214.27L864.52 194.87L881.77 190.26L923.22 207.94L906.15 214.27ZM717.83 207.58L690.05 182.81L700.03 179.72L727.75 203.65L717.83 207.58ZM1092.83 205.09L985.56 177.48L994.28 165.37L1097.66 186.04L1092.83 205.09ZM931.71 203.48L893.04 187.39L910.78 181L945.93 193.2L931.71 203.48ZM737.74 201.37L707.91 176.77L719.61 174.55L753.39 199.53L737.74 201.37ZM762.25 198.08L727.55 172.94L740.05 170.78L775.66 197.02L762.25 198.08ZM789.28 195.31L747.04 168.71L760.58 166.84L805.36 193.61L789.28 195.31ZM820.17 191.65L770.42 164.61L784.04 161.91L834.82 189.16L820.17 191.65ZM953.02 188.89L917.05 177.55L929.03 167.88L964.03 177.97L953.02 188.89ZM848.02 187.15L794.77 162.32L809.61 161.02L865.27 183.62L848.02 187.15ZM876.54 179.77L821.9 159.64L841.74 157.59L893.77 174.89L876.54 179.77ZM686.77 172.47L672.85 179.72L672.96 148.85L706.39 130.39L706.82 164.05L686.77 172.47L686.77 172.47ZM1099.92 175.68L997.66 158.22L1001.91 146.89L1102.72 159.61L1099.92 175.68ZM969.52 172.39L935.28 164.02L942.09 155.89L978.29 162.29L969.52 172.39ZM900.11 172.04L854.02 156.46L868.78 152.33L913.47 163.84L900.11 172.04ZM920.14 160.14L881.48 149.35L893.14 144.89L928.27 153.14L920.14 160.14ZM719.77 125.21L753.52 119.74L753.52 155.65L721.75 159.55L719.77 125.21ZM982.62 155.79L945.81 149.42L950.07 140.31L986.47 144.85L982.62 155.79ZM767.2 154.39L766.19 119.46L804.52 121.69L804.52 151.15L767.2 154.39ZM818.14 148.62L818.14 121.62L848.97 122.82L848.89 146.37L818.14 148.62ZM1105.58 147.01L1004.13 136.97L1005.78 122.95L1108.44 125.89L1105.58 147.01ZM939.3 138.57L934.37 146.89L900.41 140.66L907.74 134.88L939.3 138.57ZM872.89 140.48C867.94 141.92 860.42 143.86 860.42 143.86L860.21 122.43L901.61 121.29C901.61 121.29 900.46 124.08 898.26 126.69C893.48 132.37 885.12 136.92 872.89 140.48ZM990.07 135.22L954.52 131.17L957.96 120.98L993.2 122.89L990.07 135.22ZM912.84 127.39L914.38 120.38L946.8 121.58L943.34 130.53L912.84 127.39ZM511.5 391.5L690 391.5L690 447L511.5 447L511.5 391.5ZM682.5 402L519 402L519 437.89L682.5 437.95L682.5 402ZM594 331.5L607.57 331.5L606.75 387.75L594 388.07L594 331.5ZM551.5 386L553.38 325.5L562.3 327.21L561 387L551.5 386ZM573.76 328.74L584.25 330L584.25 387L571.04 387L573.76 328.74ZM592.5 283.5L609 283.5L610.94 319.5L590.56 319.5L592.5 283.5ZM570.43 313.61L577.37 281.17L585.39 283.43L582.07 317.62L570.43 313.61ZM524.78 308.6L528.81 300.09L536.92 305.78L533.76 313.21L524.78 308.6ZM550.78 304.57L560.01 274.99L570.01 278.79L562 310.43L550.78 304.57ZM501 298.38L507.93 286.5L519.92 294.22L515.5 304.19L501 298.38ZM532.5 291.67L543.77 264.3L551.61 270.75L540.6 298.22L532.5 291.67ZM478.64 291.73L490.7 275.92L502.2 282.38L493.3 295.4L478.64 291.73ZM210.82 292.62L315.75 235.1L334.38 240.62L246.96 294L210.82 292.62ZM165.93 283.6L287.66 225.08L308.08 231.99L195.74 291.82L165.93 283.6ZM345.31 242.69L362.19 245.91L299.12 290.7L261.75 292.84L345.31 242.69ZM317.02 289.64L375.06 247.92L396.36 251.71L351.08 288.11L317.02 289.64ZM445.22 287.25L467.25 263.96L480.25 269.96L464.31 289.36L445.22 287.25ZM366.13 287.38L410.05 253.4L425.71 255.85L390.75 287.97L366.13 287.38ZM439.61 258.23L454.8 261.6L430.23 288L408.75 287.86L439.61 258.23ZM511.7 279.66L529.61 252.72L537.94 258.83L524.25 288.03L511.7 279.66ZM138.87 267.15L262.56 213.98L280.34 222.48L157.96 279.92L138.87 267.15ZM496.5 268.68L515.42 241.98L524.88 248.46L507.17 274.81L496.5 268.68ZM579.51 269.63L585.74 234.46L590 235.12L586.62 271.12L579.51 269.63ZM595.65 236.05L605.61 236.23L607.94 271.5L593.56 271.5L595.65 236.05ZM562.98 264.98L573.28 230.22L580.07 233.25L571.48 267.47L562.98 264.98ZM473.98 256.21L497.58 231L507 237.42L485.26 262.38L473.98 256.21ZM548.58 256.21L562.42 224.47L567.18 228.75L554.25 259.45L548.58 256.21ZM120.94 238.62L237.77 198.42L252.87 208.87L131.73 258L120.94 238.62ZM449.52 248.23L478.63 221.51L489.5 226.69L462.78 251.88L449.52 248.23ZM535.34 241.58L551.78 217.52L556.78 221.09L542.74 250.06L535.34 241.58ZM425.15 242.65L459.72 215.58L470.9 218.93L437.77 245.85L425.15 242.65ZM410.92 240.57L393.58 237.4L432.91 209.58L447.94 212.48L410.92 240.57ZM523.1 231.55L541.16 207.2L547.39 213.83L530.96 237L523.1 231.55ZM362.77 232.13L407.79 206.16L421.52 207.41L378.85 235.32L362.77 232.13ZM115.94 231.32L110.05 213.45L219.36 183L232.76 194.64L115.94 231.32ZM333.02 225.75L376.86 202.19L391.93 204.47L350.18 229.32L333.02 225.75ZM507.41 219.74L529.33 195.81L536.82 202.85L516.89 226.43L507.41 219.74ZM304.55 217.58L347.25 196.93L367.88 200.36L324 223.01L304.55 217.58ZM544.56 191.17C542.12 184.75 540.95 177.67 540.37 165.89C539.59 150.34 539.69 149.57 542.4 150.35C543.97 150.79 551.33 153.06 558.75 155.39C571.57 159.4 573.68 159.61 600.75 159.61C627.82 159.61 629.93 159.4 642.75 155.39C650.17 153.06 657.53 150.79 659.1 150.35C661.81 149.57 661.91 150.34 661.13 165.89C660.07 187.24 656.42 197.28 645.85 207.85C635.1 218.6 625.01 222.27 604.5 222.88C595.84 223.14 585.94 222.76 582.52 222.03C564.16 218.13 550.59 207.11 544.56 191.17ZM490.5 209.86L516.62 186.05L522.74 190.36L500.44 215.9L490.5 209.86ZM277.3 208.04L318.75 190.37L336 194.98L294.37 214.38L277.3 208.04ZM472.77 203.76L500.49 179.82L510.47 182.92L482.69 207.69L472.77 203.76ZM102.86 186.14L206.24 165.48L214.96 177.59L107.69 205.19L102.86 186.14ZM254.59 193.31L289.74 181.1L307.48 187.5L268.81 203.59L254.59 193.31ZM447.13 199.64L480.91 174.66L492.61 176.88L462.78 201.48L447.13 199.64ZM424.86 197.13L460.47 170.89L472.97 173.05L438.27 198.19L424.86 197.13ZM395.16 193.72L439.94 166.95L453.48 168.82L411.24 195.41L395.16 193.72ZM365.7 189.26L416.48 162.02L430.1 164.72L380.35 191.76L365.7 189.26ZM236.49 178.08L271.49 167.99L283.47 177.66L247.5 189L236.49 178.08ZM335.25 183.72L390.91 161.13L405.75 162.43L352.5 187.25L335.25 183.72ZM306.75 175L358.78 157.69L378.62 159.75L323.98 179.88L306.75 175ZM513.75 172.58L493.7 164.15L494.13 130.5L527.56 148.95L527.67 179.83L513.75 172.58L513.75 172.58ZM97.8 159.72L198.61 147L202.86 158.33L100.6 175.78L97.8 159.72ZM222.23 162.4L258.43 156L265.24 164.13L231 172.49L222.23 162.4ZM287.05 163.95L331.74 152.44L346.5 156.57L300.41 172.15L287.05 163.95ZM272.25 153.25L307.38 145L319.04 149.46L280.38 160.25L272.25 153.25ZM478.77 159.66L447 155.76L447 119.85L480.75 125.32L478.77 159.66ZM214.05 144.95L250.45 140.42L254.71 149.53L217.9 155.9L214.05 144.95ZM396 151.26L396 121.79L434.33 119.57L433.32 154.5L396 151.26ZM580.1 151.37C565.53 147.93 550.88 137.43 546.52 121.08C542.15 104.74 544.08 85.85 548.04 68.25C549.23 73.89 550.4 90.87 556.23 91.5C556.87 91.5 559.2 83.23 561.41 73.12C563.63 63.02 567.62 48 570.29 39.75L575.14 24.75L576.09 38.25C577.21 54.09 580.13 69 582.11 69C582.87 69 583.5 67.64 583.5 65.98C583.5 58.08 599.09 2.99 601.32 3.01C603.7 20.13 600.93 37 605.03 54.75C607.91 66.79 610.39 73.5 611.94 73.5C618.07 59.97 618.89 46.5 621.37 32.25C626.71 45.54 627.95 60.44 628.68 71.24C629.48 83.62 630.77 94.37 631.53 95.13C634.41 98.01 641.39 72.31 639.44 66.04C637.93 61.21 645.16 71.74 650.42 82.05C655.13 91.27 655.94 94.34 656.03 103.15C656.23 125.65 639.98 143.72 613.12 150.87C604.41 153.19 588.82 153.42 580.1 151.37L580.1 151.37ZM351.63 146.48L351.55 122.93L382.38 121.73L382.38 148.73L351.63 146.48ZM92.08 126L194.75 123.05L196.39 137.08L94.94 147.12L92.08 126ZM292.78 134.99L300.11 140.77L266.15 147L261.22 138.68L292.78 134.99ZM302.26 126.8C300.06 124.18 298.91 121.4 298.91 121.4L340.31 122.53L340.1 143.96C340.1 143.96 332.58 142.03 327.63 140.59C315.4 137.02 307.04 132.48 302.26 126.8ZM207.32 123L242.56 121.09L246 131.28L210.45 135.33L207.32 123ZM257.18 130.63L253.72 121.68L286.14 120.49L287.68 127.5L257.18 130.63ZM538.45 404.54L542.2 415.6L553.85 415.6L544.52 422.56L547.91 433.68L538.45 427.08L529.06 433.68L532.39 422.56L523.11 415.6L534.71 415.6C534.71 415.6 538.45 404.54 538.45 404.54ZM534.77 420.66C534.77 422.83 536.51 424.58 538.69 424.58C540.87 424.58 542.67 422.83 542.67 420.66C542.67 418.48 540.87 416.73 538.69 416.73C536.51 416.73 534.77 418.48 534.77 420.66ZM577.45 404.54L581.2 415.6L592.85 415.6L583.52 422.56L586.91 433.68L577.45 427.08L568.06 433.68L571.39 422.56L562.11 415.6L573.71 415.6C573.71 415.6 577.45 404.54 577.45 404.54ZM573.77 420.66C573.77 422.83 575.51 424.58 577.69 424.58C579.87 424.58 581.67 422.83 581.67 420.66C581.67 418.48 579.87 416.73 577.69 416.73C575.51 416.73 573.77 418.48 573.77 420.66ZM619.45 404.54L623.2 415.6L634.85 415.6L625.52 422.56L628.91 433.68L619.45 427.08L610.06 433.68L613.39 422.56L604.11 415.6L615.71 415.6C615.71 415.6 619.45 404.54 619.45 404.54ZM615.77 420.66C615.77 422.83 617.51 424.58 619.69 424.58C621.87 424.58 623.67 422.83 623.67 420.66C623.67 418.48 621.87 416.73 619.69 416.73C617.51 416.73 615.77 418.48 615.77 420.66ZM658.45 404.54L662.2 415.6L673.85 415.6L664.52 422.56L667.91 433.68L658.45 427.08L649.06 433.68L652.39 422.56L643.11 415.6L654.71 415.6C654.71 415.6 658.45 404.54 658.45 404.54ZM654.77 420.66C654.77 422.83 656.51 424.58 658.69 424.58C660.87 424.58 662.67 422.83 662.67 420.66C662.67 418.48 660.87 416.73 658.69 416.73C656.51 416.73 654.77 418.48 654.77 420.66Z" />
</svg>